<svg xmlns="http://www.w3.org/2000/svg" xmlns:xlink="http://www.w3.org/1999/xlink" xmlns:lucid="lucid" width="1739.49" height="794.67"><g transform="translate(-62.666666666627805 -54.66666666664739)" lucid:page-tab-id="0_0"><path d="M0 0h1870.4v1323.2H0z" fill="#fff"/><path d="M1071.33 251.33H1226v113.34h-154.67zM486 232h160v120H486z" stroke="#000" stroke-width="2" fill="#fff"/><use xlink:href="#a" transform="matrix(1,0,0,1,491,237) translate(24.525 59.0875)"/><use xlink:href="#b" transform="matrix(1,0,0,1,491,237) translate(58.525 59.0875)"/><path d="M1064.67 244.67h154.66V358h-154.66z" stroke="#000" stroke-width="2" fill="#fff"/><path d="M1053 232h160v120h-160z" stroke="#000" stroke-width="2" fill="#fff"/><use xlink:href="#c" transform="matrix(1,0,0,1,1058,237) translate(27.624999999999993 48.775)"/><use xlink:href="#d" transform="matrix(1,0,0,1,1058,237) translate(48.074999999999996 70.375)"/><path d="M1606 251.33h154.66v113.34H1606z" stroke="#000" stroke-width="2" fill="#fff"/><path d="M1599.32 244.67H1754V358H1599.3z" stroke="#000" stroke-width="2" fill="#fff"/><path d="M1587.66 232h160v120h-160z" stroke="#000" stroke-width="2" fill="#fff"/><use xlink:href="#e" transform="matrix(1,0,0,1,1592.6580739530534,236.99999999998056) translate(19.125 48.775)"/><use xlink:href="#f" transform="matrix(1,0,0,1,1592.6580739530534,236.99999999998056) translate(78.975 48.775)"/><use xlink:href="#d" transform="matrix(1,0,0,1,1592.6580739530534,236.99999999998056) translate(48.074999999999996 70.375)"/><path d="M906 280.33c8.84 0 16 6.57 16 14.67s-7.16 14.67-16 14.67H778c-8.84 0-16-6.57-16-14.67s7.16-14.67 16-14.67z" stroke="#000" stroke-width="2" fill="#fff"/><path d="M906 309.67c-8.84 0-16-6.57-16-14.67s7.16-14.67 16-14.67" stroke="#000" stroke-width="2" fill="none"/><use xlink:href="#g" transform="matrix(1,0,0,1,766.9999999999611,285.3333333333139) translate(17.029999999999994 15.65)"/><use xlink:href="#h" transform="matrix(1,0,0,1,766.9999999999611,285.3333333333139) translate(68.03 15.65)"/><path d="M1470.83 277.33c8.84 0 16 6.57 16 14.67s-7.16 14.67-16 14.67h-128c-8.84 0-16-6.57-16-14.67s7.16-14.67 16-14.67z" stroke="#000" stroke-width="2" fill="#fff"/><path d="M1470.83 306.67c-8.84 0-16-6.57-16-14.67s7.16-14.67 16-14.67" stroke="#000" stroke-width="2" fill="none"/><use xlink:href="#g" transform="matrix(1,0,0,1,1331.829036976546,282.3333333333333) translate(17.029999999999994 15.65)"/><use xlink:href="#h" transform="matrix(1,0,0,1,1331.829036976546,282.3333333333333) translate(68.03 15.65)"/><path d="M648 292h112.4" stroke="#000" stroke-width="2" fill="none"/><path d="M648.03 293H647v-2h1.03zM761.5 291.23l-.25 1.77h-.9v-2h1.23z"/><path d="M924 295h109.5" stroke="#000" stroke-width="2" fill="none"/><path d="M924.03 296h-1.15l.13-1-.12-1h1.15z"/><path d="M1048.76 295l-14.26 4.64v-9.28z" stroke="#000" stroke-width="2"/><path d="M1488.84 292h79.32" stroke="#000" stroke-width="2" fill="none"/><path d="M1488.86 293h-1.15l.14-1-.13-1h1.16z"/><path d="M1583.42 292l-14.26 4.64v-9.28z" stroke="#000" stroke-width="2"/><path d="M1215 292h109.82" stroke="#000" stroke-width="2" fill="none"/><path d="M1215.03 293H1214v-2h1.03zM1325.82 292l.13 1h-1.16v-2h1.15z"/><path d="M82.67 232h160v120h-160z" stroke="#000" stroke-width="2" fill="#fff"/><use xlink:href="#i" transform="matrix(1,0,0,1,87.6666666666278,236.99999999998056) translate(52.075 59.0875)"/><path d="M244.67 292H466.5" stroke="#000" stroke-width="2" fill="none"/><path d="M244.7 293h-1.03v-2h1.02z"/><path d="M481.76 292l-14.26 4.64v-9.28z" stroke="#000" stroke-width="2"/><path d="M246 242.67h240v60H246z" stroke="#000" stroke-opacity="0" stroke-width="2" fill="#fff" fill-opacity="0"/><use xlink:href="#j" transform="matrix(1,0,0,1,251,247.66666666662786) translate(51.099999999999994 30.025)"/><use xlink:href="#k" transform="matrix(1,0,0,1,251,247.66666666662786) translate(124.95 30.025)"/><path d="M242.67 289.67h240v60h-240z" stroke="#000" stroke-opacity="0" stroke-width="2" fill="#fff" fill-opacity="0"/><use xlink:href="#j" transform="matrix(1,0,0,1,247.6666666666278,294.6666666666667) translate(58.599999999999994 30.025)"/><use xlink:href="#l" transform="matrix(1,0,0,1,247.6666666666278,294.6666666666667) translate(132.45 30.025)"/><path d="M1608.5 446.38h154.66V559.7H1608.5z" stroke="#000" stroke-width="2" fill="#fff"/><path d="M1601.82 439.7h154.67v113.35H1601.8z" stroke="#000" stroke-width="2" fill="#fff"/><path d="M1590.16 427.05h160v120h-160z" stroke="#000" stroke-width="2" fill="#fff"/><use xlink:href="#m" transform="matrix(1,0,0,1,1595.158073953034,432.0455729302578) translate(9.099999999999994 48.775)"/><use xlink:href="#f" transform="matrix(1,0,0,1,1595.158073953034,432.0455729302578) translate(89 48.775)"/><use xlink:href="#d" transform="matrix(1,0,0,1,1595.158073953034,432.0455729302578) translate(48.074999999999996 70.375)"/><path d="M1470.83 472.38c8.84 0 16 6.57 16 14.67s-7.16 14.66-16 14.66h-128c-8.84 0-16-6.55-16-14.65 0-8.1 7.16-14.67 16-14.67z" stroke="#000" stroke-width="2" fill="#fff"/><path d="M1470.83 501.7c-8.84 0-16-6.55-16-14.65 0-8.1 7.16-14.67 16-14.67" stroke="#000" stroke-width="2" fill="none"/><use xlink:href="#g" transform="matrix(1,0,0,1,1331.829036976546,477.3789062635911) translate(17.029999999999994 15.65)"/><use xlink:href="#h" transform="matrix(1,0,0,1,1331.829036976546,477.3789062635911) translate(68.03 15.65)"/><path d="M1215 292h54.9v195.05h54.92" stroke="#000" stroke-width="2" fill="none"/><path d="M1215.03 293H1214v-2h1.03zM1325.82 487.05l.13 1h-1.16v-2h1.15z"/><path d="M1488.84 487.05h81.82" stroke="#000" stroke-width="2" fill="none"/><path d="M1488.86 488.05h-1.15l.14-1-.13-1h1.16z"/><path d="M1585.92 487.05l-14.26 4.63v-9.27z" stroke="#000" stroke-width="2"/><path d="M1062 566.33h160v120h-160z" stroke="#000" stroke-width="2" fill="#fff"/><use xlink:href="#n" transform="matrix(1,0,0,1,1066.9999999999998,571.3333333333331) translate(21.599999999999994 48.775)"/><use xlink:href="#o" transform="matrix(1,0,0,1,1066.9999999999998,571.3333333333331) translate(46.55 70.375)"/><path d="M1667.66 354v39.5H1142v153.33" stroke="#999" stroke-width="2" fill="none"/><path d="M1668.66 354.03h-2V353h2z" fill="#999"/><path d="M1142 562.1l-4.64-14.27h9.28z" stroke="#999" stroke-width="2" fill="#999"/><path d="M1670.16 549.05v77.28H1241.5" stroke="#999" stroke-width="2" fill="none"/><path d="M1671.16 549.07h-2v-1.02h2z" fill="#999"/><path d="M1226.24 626.33l14.26-4.63v9.27z" stroke="#999" stroke-width="2" fill="#999"/><path d="M486 566.33h160v120H486z" stroke="#000" stroke-width="2" fill="#fff"/><use xlink:href="#p" transform="matrix(1,0,0,1,491,571.3333333333331) translate(18.549999999999997 59.0875)"/><use xlink:href="#o" transform="matrix(1,0,0,1,491,571.3333333333331) translate(74.55 59.0875)"/><path d="M928 74.67c11.87 0 21.5 12.83 21.5 28.66 0 15.84-9.63 28.67-21.5 28.67H756c-11.87 0-21.5-12.83-21.5-28.67 0-15.83 9.63-28.66 21.5-28.66z" stroke="#000" stroke-width="2" fill="#fff"/><path d="M928 132c-11.87 0-21.5-12.83-21.5-28.67 0-15.83 9.63-28.66 21.5-28.66" stroke="#000" stroke-width="2" fill="none"/><use xlink:href="#q" transform="matrix(1,0,0,1,739.4999999999222,79.66666666664739) translate(9.579999999999993 17.4)"/><use xlink:href="#r" transform="matrix(1,0,0,1,739.4999999999222,79.66666666664739) translate(107.43 17.4)"/><use xlink:href="#h" transform="matrix(1,0,0,1,739.4999999999222,79.66666666664739) translate(64.53 39)"/><path d="M1133 230V103.33H969" stroke="#000" stroke-width="2" fill="none"/><path d="M1134 231h-2v-1.03h2z"/><path d="M953.74 103.33L968 98.7v9.27z" stroke="#000" stroke-width="2"/><path d="M1667.66 230V104H996.7" stroke="#000" stroke-width="2" fill="none"/><path d="M1668.66 231h-2v-1.03h2z"/><path d="M996.37 104.36v-1.03M1752.16 487.05h39V105.33h-122.5" stroke="#000" stroke-width="2" fill="none"/><path d="M1752.18 488.05h-1.02v-2h1.02z"/><path d="M1668.68 105.33h-1.02M732.5 103.33h-42.25v523H665.5" stroke="#000" stroke-width="2" fill="none"/><path d="M733.5 103.37l.08.96h-1.1v-2h1.1z"/><path d="M650.24 626.33l14.26-4.63v9.27z" stroke="#000" stroke-width="2"/><path d="M1194 819.07c0 5.67-23.28 10.26-52 10.26s-52-4.6-52-10.26v-82.14c0-5.67 23.28-10.26 52-10.26s52 4.6 52 10.26z" stroke="#000" stroke-width="2" fill="#fff"/><path d="M1194 736.93c0 5.67-23.28 10.27-52 10.27s-52-4.6-52-10.27" stroke="#000" stroke-width="2" fill="none"/><g><use xlink:href="#s" transform="matrix(1,0,0,1,1094.9999999999998,752.1999999999999) translate(7.524999999999999 30.36875)"/><use xlink:href="#t" transform="matrix(1,0,0,1,1094.9999999999998,752.1999999999999) translate(18.075 51.96875)"/></g><path d="M1142 724.67v-36.34" stroke="#000" stroke-width="2" fill="none"/><path d="M1143 725.7l-1-.03h-1v-1.03h2zM1143 688.36h-2v-1.03h2z"/><path d="M618 812.07c0 5.67-23.28 10.26-52 10.26s-52-4.6-52-10.26v-82.14c0-5.67 23.28-10.26 52-10.26s52 4.6 52 10.26z" stroke="#000" stroke-width="2" fill="#fff"/><path d="M618 729.93c0 5.67-23.28 10.27-52 10.27s-52-4.6-52-10.27" stroke="#000" stroke-width="2" fill="none"/><g><use xlink:href="#u" transform="matrix(1,0,0,1,519,745.1999999999999) translate(0.5749999999999957 30.36875)"/><use xlink:href="#v" transform="matrix(1,0,0,1,519,745.1999999999999) translate(23 51.96875)"/></g><path d="M566 717.67v-29.34" stroke="#000" stroke-width="2" fill="none"/><path d="M567 718.7l-1-.03h-1v-1.03h2zM567 688.36h-2v-1.03h2z"/><path d="M566 354v192.83" stroke="#999" stroke-width="2" fill="none"/><path d="M567 354.03h-2V353h2z" fill="#999"/><path d="M566 562.1l-4.64-14.27h9.28z" stroke="#999" stroke-width="2" fill="#999"/><defs><path d="M205 0l-28-72H64L36 0H1l101-248h38L239 0h-34zm-38-99l-47-123c-12 45-31 82-46 123h93" id="w"/><path d="M30-248c87 1 191-15 191 75 0 78-77 80-158 76V0H30v-248zm33 125c57 0 124 11 124-50 0-59-68-47-124-48v98" id="x"/><path d="M33 0v-248h34V0H33" id="y"/><g id="a"><use transform="matrix(0.05,0,0,0.05,0,0)" xlink:href="#w"/><use transform="matrix(0.05,0,0,0.05,12,0)" xlink:href="#x"/><use transform="matrix(0.05,0,0,0.05,24,0)" xlink:href="#y"/></g><path d="M177-190C167-65 218 103 67 71c-23-6-38-20-44-43l32-5c15 47 100 32 89-28v-30C133-14 115 1 83 1 29 1 15-40 15-95c0-56 16-97 71-98 29-1 48 16 59 35 1-10 0-23 2-32h30zM94-22c36 0 50-32 50-73 0-42-14-75-50-75-39 0-46 34-46 75s6 73 46 73" id="z"/><path d="M141-36C126-15 110 5 73 4 37 3 15-17 15-53c-1-64 63-63 125-63 3-35-9-54-41-54-24 1-41 7-42 31l-33-3c5-37 33-52 76-52 45 0 72 20 72 64v82c-1 20 7 32 28 27v20c-31 9-61-2-59-35zM48-53c0 20 12 33 32 33 41-3 63-29 60-74-43 2-92-5-92 41" id="A"/><path d="M59-47c-2 24 18 29 38 22v24C64 9 27 4 27-40v-127H5v-23h24l9-43h21v43h35v23H59v120" id="B"/><path d="M100-194c63 0 86 42 84 106H49c0 40 14 67 53 68 26 1 43-12 49-29l28 8c-11 28-37 45-77 45C44 4 14-33 15-96c1-61 26-98 85-98zm52 81c6-60-76-77-97-28-3 7-6 17-6 28h103" id="C"/><path d="M206 0h-36l-40-164L89 0H53L-1-190h32L70-26l43-164h34l41 164 42-164h31" id="D"/><path d="M179-190L93 31C79 59 56 82 12 73V49c39 6 53-20 64-50L1-190h34L92-34l54-156h33" id="E"/><g id="b"><use transform="matrix(0.05,0,0,0.05,0,0)" xlink:href="#z"/><use transform="matrix(0.05,0,0,0.05,10,0)" xlink:href="#A"/><use transform="matrix(0.05,0,0,0.05,20,0)" xlink:href="#B"/><use transform="matrix(0.05,0,0,0.05,25,0)" xlink:href="#C"/><use transform="matrix(0.05,0,0,0.05,35,0)" xlink:href="#D"/><use transform="matrix(0.05,0,0,0.05,47.95,0)" xlink:href="#A"/><use transform="matrix(0.05,0,0,0.05,57.95,0)" xlink:href="#E"/></g><path d="M212-179c-10-28-35-45-73-45-59 0-87 40-87 99 0 60 29 101 89 101 43 0 62-24 78-52l27 14C228-24 195 4 139 4 59 4 22-46 18-125c-6-104 99-153 187-111 19 9 31 26 39 46" id="F"/><path d="M100-194c62-1 85 37 85 99 1 63-27 99-86 99S16-35 15-95c0-66 28-99 85-99zM99-20c44 1 53-31 53-75 0-43-8-75-51-75s-53 32-53 75 10 74 51 75" id="G"/><path d="M210-169c-67 3-38 105-44 169h-31v-121c0-29-5-50-35-48C34-165 62-65 56 0H25l-1-190h30c1 10-1 24 2 32 10-44 99-50 107 0 11-21 27-35 58-36 85-2 47 119 55 194h-31v-121c0-29-5-49-35-48" id="H"/><path d="M115-194c55 1 70 41 70 98S169 2 115 4C84 4 66-9 55-30l1 105H24l-1-265h31l2 30c10-21 28-34 59-34zm-8 174c40 0 45-34 45-75s-6-73-45-74c-42 0-51 32-51 76 0 43 10 73 51 73" id="I"/><path d="M24-231v-30h32v30H24zM24 0v-190h32V0H24" id="J"/><path d="M24 0v-261h32V0H24" id="K"/><path d="M117-194c89-4 53 116 60 194h-32v-121c0-31-8-49-39-48C34-167 62-67 57 0H25l-1-190h30c1 10-1 24 2 32 11-22 29-35 61-36" id="L"/><g id="c"><use transform="matrix(0.05,0,0,0.05,0,0)" xlink:href="#F"/><use transform="matrix(0.05,0,0,0.05,12.950000000000001,0)" xlink:href="#G"/><use transform="matrix(0.05,0,0,0.05,22.950000000000003,0)" xlink:href="#H"/><use transform="matrix(0.05,0,0,0.05,37.900000000000006,0)" xlink:href="#I"/><use transform="matrix(0.05,0,0,0.05,47.900000000000006,0)" xlink:href="#J"/><use transform="matrix(0.05,0,0,0.05,51.85,0)" xlink:href="#K"/><use transform="matrix(0.05,0,0,0.05,55.80000000000001,0)" xlink:href="#A"/><use transform="matrix(0.05,0,0,0.05,65.80000000000001,0)" xlink:href="#B"/><use transform="matrix(0.05,0,0,0.05,70.80000000000001,0)" xlink:href="#J"/><use transform="matrix(0.05,0,0,0.05,74.75000000000001,0)" xlink:href="#G"/><use transform="matrix(0.05,0,0,0.05,84.75000000000001,0)" xlink:href="#L"/></g><path d="M114-163C36-179 61-72 57 0H25l-1-190h30c1 12-1 29 2 39 6-27 23-49 58-41v29" id="M"/><path d="M143 0L79-87 56-68V0H24v-261h32v163l83-92h37l-77 82L181 0h-38" id="N"/><g id="d"><use transform="matrix(0.05,0,0,0.05,0,0)" xlink:href="#D"/><use transform="matrix(0.05,0,0,0.05,12.950000000000001,0)" xlink:href="#G"/><use transform="matrix(0.05,0,0,0.05,22.950000000000003,0)" xlink:href="#M"/><use transform="matrix(0.05,0,0,0.05,28.900000000000002,0)" xlink:href="#N"/><use transform="matrix(0.05,0,0,0.05,37.900000000000006,0)" xlink:href="#C"/><use transform="matrix(0.05,0,0,0.05,47.900000000000006,0)" xlink:href="#M"/></g><path d="M185-189c-5-48-123-54-124 2 14 75 158 14 163 119 3 78-121 87-175 55-17-10-28-26-33-46l33-7c5 56 141 63 141-1 0-78-155-14-162-118-5-82 145-84 179-34 5 7 8 16 11 25" id="O"/><g id="e"><use transform="matrix(0.05,0,0,0.05,0,0)" xlink:href="#O"/><use transform="matrix(0.05,0,0,0.05,12,0)" xlink:href="#J"/><use transform="matrix(0.05,0,0,0.05,15.949999999999998,0)" xlink:href="#H"/><use transform="matrix(0.05,0,0,0.05,30.899999999999995,0)" xlink:href="#I"/><use transform="matrix(0.05,0,0,0.05,40.9,0)" xlink:href="#K"/><use transform="matrix(0.05,0,0,0.05,44.85,0)" xlink:href="#C"/></g><path d="M84 4C-5 8 30-112 23-190h32v120c0 31 7 50 39 49 72-2 45-101 50-169h31l1 190h-30c-1-10 1-25-2-33-11 22-28 36-60 37" id="P"/><g id="f"><use transform="matrix(0.05,0,0,0.05,0,0)" xlink:href="#M"/><use transform="matrix(0.05,0,0,0.05,5.95,0)" xlink:href="#P"/><use transform="matrix(0.05,0,0,0.05,15.949999999999998,0)" xlink:href="#L"/><use transform="matrix(0.05,0,0,0.05,25.950000000000003,0)" xlink:href="#L"/><use transform="matrix(0.05,0,0,0.05,35.95,0)" xlink:href="#C"/><use transform="matrix(0.05,0,0,0.05,45.95,0)" xlink:href="#M"/></g><path d="M194 0L95-120 63-95V0H30v-248h33v124l119-124h40L117-140 236 0h-42" id="Q"/><path d="M101-234c-31-9-42 10-38 44h38v23H63V0H32v-167H5v-23h27c-7-52 17-82 69-68v24" id="R"/><g id="g"><use transform="matrix(0.05,0,0,0.05,0,0)" xlink:href="#Q"/><use transform="matrix(0.05,0,0,0.05,12,0)" xlink:href="#A"/><use transform="matrix(0.05,0,0,0.05,22,0)" xlink:href="#R"/><use transform="matrix(0.05,0,0,0.05,27,0)" xlink:href="#N"/><use transform="matrix(0.05,0,0,0.05,36,0)" xlink:href="#A"/></g><path d="M96-169c-40 0-48 33-48 73s9 75 48 75c24 0 41-14 43-38l32 2c-6 37-31 61-74 61-59 0-76-41-82-99-10-93 101-131 147-64 4 7 5 14 7 22l-32 3c-4-21-16-35-41-35" id="S"/><g id="h"><use transform="matrix(0.05,0,0,0.05,0,0)" xlink:href="#B"/><use transform="matrix(0.05,0,0,0.05,5,0)" xlink:href="#G"/><use transform="matrix(0.05,0,0,0.05,15,0)" xlink:href="#I"/><use transform="matrix(0.05,0,0,0.05,25,0)" xlink:href="#J"/><use transform="matrix(0.05,0,0,0.05,28.950000000000003,0)" xlink:href="#S"/></g><g id="i"><use transform="matrix(0.05,0,0,0.05,0,0)" xlink:href="#F"/><use transform="matrix(0.05,0,0,0.05,12.950000000000001,0)" xlink:href="#K"/><use transform="matrix(0.05,0,0,0.05,16.900000000000002,0)" xlink:href="#J"/><use transform="matrix(0.05,0,0,0.05,20.85,0)" xlink:href="#C"/><use transform="matrix(0.05,0,0,0.05,30.85,0)" xlink:href="#L"/><use transform="matrix(0.05,0,0,0.05,40.85,0)" xlink:href="#B"/></g><g id="j"><use transform="matrix(0.05,0,0,0.05,0,0)" xlink:href="#x"/><use transform="matrix(0.05,0,0,0.05,12,0)" xlink:href="#M"/><use transform="matrix(0.05,0,0,0.05,17.95,0)" xlink:href="#G"/><use transform="matrix(0.05,0,0,0.05,27.950000000000003,0)" xlink:href="#z"/><use transform="matrix(0.05,0,0,0.05,37.95,0)" xlink:href="#M"/><use transform="matrix(0.05,0,0,0.05,43.900000000000006,0)" xlink:href="#A"/><use transform="matrix(0.05,0,0,0.05,53.900000000000006,0)" xlink:href="#H"/></g><path d="M135-143c-3-34-86-38-87 0 15 53 115 12 119 90S17 21 10-45l28-5c4 36 97 45 98 0-10-56-113-15-118-90-4-57 82-63 122-42 12 7 21 19 24 35" id="T"/><g id="k"><use transform="matrix(0.05,0,0,0.05,0,0)" xlink:href="#T"/><use transform="matrix(0.05,0,0,0.05,9,0)" xlink:href="#G"/><use transform="matrix(0.05,0,0,0.05,19,0)" xlink:href="#P"/><use transform="matrix(0.05,0,0,0.05,29,0)" xlink:href="#M"/><use transform="matrix(0.05,0,0,0.05,34.95,0)" xlink:href="#S"/><use transform="matrix(0.05,0,0,0.05,43.95,0)" xlink:href="#C"/></g><g id="l"><use transform="matrix(0.05,0,0,0.05,0,0)" xlink:href="#J"/><use transform="matrix(0.05,0,0,0.05,3.95,0)" xlink:href="#L"/><use transform="matrix(0.05,0,0,0.05,13.949999999999998,0)" xlink:href="#I"/><use transform="matrix(0.05,0,0,0.05,23.95,0)" xlink:href="#P"/><use transform="matrix(0.05,0,0,0.05,33.95,0)" xlink:href="#B"/></g><path d="M106-169C34-169 62-67 57 0H25v-261h32l-1 103c12-21 28-36 61-36 89 0 53 116 60 194h-32v-121c2-32-8-49-39-48" id="U"/><g id="m"><use transform="matrix(0.05,0,0,0.05,0,0)" xlink:href="#F"/><use transform="matrix(0.05,0,0,0.05,12.950000000000001,0)" xlink:href="#U"/><use transform="matrix(0.05,0,0,0.05,22.950000000000003,0)" xlink:href="#C"/><use transform="matrix(0.05,0,0,0.05,32.95,0)" xlink:href="#S"/><use transform="matrix(0.05,0,0,0.05,41.95,0)" xlink:href="#N"/><use transform="matrix(0.05,0,0,0.05,50.95,0)" xlink:href="#J"/><use transform="matrix(0.05,0,0,0.05,54.900000000000006,0)" xlink:href="#L"/><use transform="matrix(0.05,0,0,0.05,64.9,0)" xlink:href="#z"/></g><g id="n"><use transform="matrix(0.05,0,0,0.05,0,0)" xlink:href="#F"/><use transform="matrix(0.05,0,0,0.05,12.950000000000001,0)" xlink:href="#G"/><use transform="matrix(0.05,0,0,0.05,22.950000000000003,0)" xlink:href="#L"/><use transform="matrix(0.05,0,0,0.05,32.95,0)" xlink:href="#R"/><use transform="matrix(0.05,0,0,0.05,37.95,0)" xlink:href="#J"/><use transform="matrix(0.05,0,0,0.05,41.900000000000006,0)" xlink:href="#z"/><use transform="matrix(0.05,0,0,0.05,51.900000000000006,0)" xlink:href="#P"/><use transform="matrix(0.05,0,0,0.05,61.900000000000006,0)" xlink:href="#M"/><use transform="matrix(0.05,0,0,0.05,67.85000000000001,0)" xlink:href="#A"/><use transform="matrix(0.05,0,0,0.05,77.85000000000001,0)" xlink:href="#B"/><use transform="matrix(0.05,0,0,0.05,82.85000000000001,0)" xlink:href="#J"/><use transform="matrix(0.05,0,0,0.05,86.80000000000001,0)" xlink:href="#G"/><use transform="matrix(0.05,0,0,0.05,96.80000000000001,0)" xlink:href="#L"/></g><path d="M108 0H70L1-190h34L89-25l56-165h34" id="V"/><g id="o"><use transform="matrix(0.05,0,0,0.05,0,0)" xlink:href="#T"/><use transform="matrix(0.05,0,0,0.05,9,0)" xlink:href="#C"/><use transform="matrix(0.05,0,0,0.05,19,0)" xlink:href="#M"/><use transform="matrix(0.05,0,0,0.05,24.95,0)" xlink:href="#V"/><use transform="matrix(0.05,0,0,0.05,33.95,0)" xlink:href="#J"/><use transform="matrix(0.05,0,0,0.05,37.900000000000006,0)" xlink:href="#S"/><use transform="matrix(0.05,0,0,0.05,46.900000000000006,0)" xlink:href="#C"/></g><g id="p"><use transform="matrix(0.05,0,0,0.05,0,0)" xlink:href="#O"/><use transform="matrix(0.05,0,0,0.05,12,0)" xlink:href="#B"/><use transform="matrix(0.05,0,0,0.05,17,0)" xlink:href="#A"/><use transform="matrix(0.05,0,0,0.05,27,0)" xlink:href="#B"/><use transform="matrix(0.05,0,0,0.05,32,0)" xlink:href="#P"/><use transform="matrix(0.05,0,0,0.05,42,0)" xlink:href="#T"/></g><path d="M115-194c53 0 69 39 70 98 0 66-23 100-70 100C84 3 66-7 56-30L54 0H23l1-261h32v101c10-23 28-34 59-34zm-8 174c40 0 45-34 45-75 0-40-5-75-45-74-42 0-51 32-51 76 0 43 10 73 51 73" id="W"/><g id="q"><use transform="matrix(0.05,0,0,0.05,0,0)" xlink:href="#O"/><use transform="matrix(0.05,0,0,0.05,12,0)" xlink:href="#P"/><use transform="matrix(0.05,0,0,0.05,22,0)" xlink:href="#W"/><use transform="matrix(0.05,0,0,0.05,32,0)" xlink:href="#H"/><use transform="matrix(0.05,0,0,0.05,46.95,0)" xlink:href="#J"/><use transform="matrix(0.05,0,0,0.05,50.900000000000006,0)" xlink:href="#T"/><use transform="matrix(0.05,0,0,0.05,59.900000000000006,0)" xlink:href="#T"/><use transform="matrix(0.05,0,0,0.05,68.9,0)" xlink:href="#J"/><use transform="matrix(0.05,0,0,0.05,72.85000000000001,0)" xlink:href="#G"/><use transform="matrix(0.05,0,0,0.05,82.85000000000001,0)" xlink:href="#L"/></g><g id="r"><use transform="matrix(0.05,0,0,0.05,0,0)" xlink:href="#T"/><use transform="matrix(0.05,0,0,0.05,9,0)" xlink:href="#B"/><use transform="matrix(0.05,0,0,0.05,14,0)" xlink:href="#A"/><use transform="matrix(0.05,0,0,0.05,24,0)" xlink:href="#B"/><use transform="matrix(0.05,0,0,0.05,29,0)" xlink:href="#P"/><use transform="matrix(0.05,0,0,0.05,39,0)" xlink:href="#T"/></g><path d="M30 0v-248h187v28H63v79h144v27H63v87h162V0H30" id="X"/><path d="M141 0L90-78 38 0H4l68-98-65-92h35l48 74 47-74h35l-64 92 68 98h-35" id="Y"/><g id="s"><use transform="matrix(0.05,0,0,0.05,0,0)" xlink:href="#X"/><use transform="matrix(0.05,0,0,0.05,12,0)" xlink:href="#Y"/><use transform="matrix(0.05,0,0,0.05,21,0)" xlink:href="#C"/><use transform="matrix(0.05,0,0,0.05,31,0)" xlink:href="#S"/><use transform="matrix(0.05,0,0,0.05,40,0)" xlink:href="#P"/><use transform="matrix(0.05,0,0,0.05,50,0)" xlink:href="#B"/><use transform="matrix(0.05,0,0,0.05,55,0)" xlink:href="#J"/><use transform="matrix(0.05,0,0,0.05,58.95,0)" xlink:href="#G"/><use transform="matrix(0.05,0,0,0.05,68.95,0)" xlink:href="#L"/></g><g id="t"><use transform="matrix(0.05,0,0,0.05,0,0)" xlink:href="#I"/><use transform="matrix(0.05,0,0,0.05,10,0)" xlink:href="#M"/><use transform="matrix(0.05,0,0,0.05,15.949999999999998,0)" xlink:href="#G"/><use transform="matrix(0.05,0,0,0.05,25.950000000000003,0)" xlink:href="#R"/><use transform="matrix(0.05,0,0,0.05,30.950000000000003,0)" xlink:href="#J"/><use transform="matrix(0.05,0,0,0.05,34.9,0)" xlink:href="#K"/><use transform="matrix(0.05,0,0,0.05,38.85,0)" xlink:href="#C"/><use transform="matrix(0.05,0,0,0.05,48.85,0)" xlink:href="#T"/></g><g id="u"><use transform="matrix(0.05,0,0,0.05,0,0)" xlink:href="#O"/><use transform="matrix(0.05,0,0,0.05,12,0)" xlink:href="#P"/><use transform="matrix(0.05,0,0,0.05,22,0)" xlink:href="#W"/><use transform="matrix(0.05,0,0,0.05,32,0)" xlink:href="#H"/><use transform="matrix(0.05,0,0,0.05,46.95,0)" xlink:href="#J"/><use transform="matrix(0.05,0,0,0.05,50.900000000000006,0)" xlink:href="#T"/><use transform="matrix(0.05,0,0,0.05,59.900000000000006,0)" xlink:href="#T"/><use transform="matrix(0.05,0,0,0.05,68.9,0)" xlink:href="#J"/><use transform="matrix(0.05,0,0,0.05,72.85000000000001,0)" xlink:href="#G"/><use transform="matrix(0.05,0,0,0.05,82.85000000000001,0)" xlink:href="#L"/></g><g id="v"><use transform="matrix(0.05,0,0,0.05,0,0)" xlink:href="#T"/><use transform="matrix(0.05,0,0,0.05,9,0)" xlink:href="#B"/><use transform="matrix(0.05,0,0,0.05,14,0)" xlink:href="#A"/><use transform="matrix(0.05,0,0,0.05,24,0)" xlink:href="#B"/><use transform="matrix(0.05,0,0,0.05,29,0)" xlink:href="#P"/><use transform="matrix(0.05,0,0,0.05,39,0)" xlink:href="#T"/></g></defs></g></svg>